<svg width="54" height="46" viewBox="0 0 54 46" fill="none" xmlns="http://www.w3.org/2000/svg">
<path d="M6 31V17C6 9.26801 12.268 3 20 3V3C27.732 3 34 9.26801 34 17V31" stroke="#4FA0EB" stroke-width="6"/>
<path d="M20 15V29C20 36.732 26.268 43 34 43V43C41.732 43 48 36.732 48 29V15" stroke="#DD3B3B" stroke-width="6"/>
<rect x="42" y="9" width="12" height="12" rx="6" fill="#DD3B3B"/>
<rect y="25" width="12" height="12" rx="6" fill="#4FA0EB"/>
<rect x="4" y="29" width="4" height="4" rx="2" fill="white"/>
<path d="M46 15C46 13.8954 46.8954 13 48 13C49.1046 13 50 13.8954 50 15C50 16.1046 49.1046 17 48 17C46.8954 17 46 16.1046 46 15Z" fill="white"/>
<path d="M13.5235 15.5704C12.33 16.7812 12.7654 18.818 14.3496 19.4351C15.2298 19.7779 16.2296 19.5642 16.8927 18.8915L17.8635 17.9066C19.0384 16.7146 20.9616 16.7146 22.1365 17.9066L23.1073 18.8915C23.7704 19.5642 24.7702 19.7779 25.6504 19.4351C27.2346 18.818 27.67 16.7812 26.4765 15.5704L22.1365 11.1675C20.9616 9.9755 19.0384 9.97549 17.8635 11.1675L13.5235 15.5704Z" fill="#DD3B3B"/>
<path d="M40.5717 31.3331C41.8079 30.079 41.5424 27.9982 40.0309 27.0946C38.9562 26.4521 37.5815 26.6275 36.7025 27.5192L36.1365 28.0934C34.9616 29.2854 33.0384 29.2854 31.8635 28.0934L31.2975 27.5192C30.4185 26.6275 29.0438 26.4521 27.9691 27.0946C26.4576 27.9982 26.1921 30.079 27.4283 31.3331L31.8635 35.8325C33.0384 37.0245 34.9616 37.0245 36.1365 35.8325L40.5717 31.3331Z" fill="#4FA0EB"/>
</svg>
