<svg width="100" height="100" xmlns="http://www.w3.org/2000/svg">

 <g>
  <title>background</title>
  <rect fill="none" id="canvas_background" height="402" width="582" y="-1" x="-1"/>
 </g>
 <g>
  <title>Layer 1</title>
  <path fill="#ffffff" id="svg_1" d="m1.8,19.7l0,62.1c0,1.4 1.1,2.5 2.5,2.5l91,0c1.4,0 2.5,-1.1 2.5,-2.5l0,-62.1c0,-1.4 -1.1,-2.5 -2.5,-2.5l-91,0c-1.4,0 -2.5,1.1 -2.5,2.5zm48,33.4l-38.5,-30.9l76.8,0l-38.3,30.9zm-13.1,-4.1l-30,27.2l0,-51.3l30,24.1zm4,3.2l7.5,6.1c0.9,0.7 2.2,0.7 3.1,0l7,-5.6l30.4,26.7l-78,0l30,-27.2zm21.5,-2.7l30.5,-24.6l0,51.4l-30.5,-26.8z"/>
 </g>
</svg>