<svg width="100" height="100" xmlns="http://www.w3.org/2000/svg">

 <g>
  <title>background</title>
  <rect fill="none" id="canvas_background" height="402" width="582" y="-1" x="-1"/>
 </g>
 <g>
  <title>Layer 1</title>
  <g id="svg_1">
   <path fill="#ffffff" id="svg_2" d="m76.7,0.2l-53.5,0c-0.6,0 -1,0.4 -1,1l0,98.1c0,0.6 0.4,1 1,1l53.5,0c0.6,0 1,-0.4 1,-1l0,-98.1c0,-0.6 -0.4,-1 -1,-1zm-4,95.1l-45.5,0l0,-90.1l45.5,0c0,0 0,90.1 0,90.1z"/>
   <path fill="#ffffff" id="svg_3" d="m45.7,92.1l8.3,0c1.7,0 2.7,-1.3 2.7,-2.7c0,-1.5 -1.3,-2.7 -2.7,-2.7l-8.3,0c-1.5,0 -2.7,1.3 -2.7,2.7c-0.1,1.4 1.2,2.7 2.7,2.7z"/>
   <g id="svg_4">
    <path fill="#ffffff" id="svg_5" d="m51.8,11.2l-9.5,0c-0.8,0 -1.5,-0.7 -1.5,-1.5l0,0c0,-0.8 0.7,-1.5 1.5,-1.5l9.5,0c0.8,0 1.5,0.7 1.5,1.5l0,0c0,0.8 -0.6,1.5 -1.5,1.5z"/>
   </g>
   <g id="svg_6">
    <circle fill="#ffffff" id="svg_7" r="1.5" cy="9.7" cx="57.7"/>
   </g>
  </g>
 </g>
</svg>